<mxfile host="Electron" modified="2024-07-23T09:55:18.670Z" agent="Mozilla/5.0 (Windows NT 10.0; Win64; x64) AppleWebKit/537.36 (KHTML, like Gecko) draw.io/24.6.4 Chrome/124.0.6367.207 Electron/30.0.6 Safari/537.36" etag="6D-XdDC9E6LTB_dluSOv" version="24.6.4" type="device">
  <diagram name="第 1 页" id="KWvOELfXXFuOR0ZtLIgL">
    <mxGraphModel dx="870" dy="415" grid="0" gridSize="10" guides="1" tooltips="1" connect="1" arrows="1" fold="1" page="1" pageScale="1" pageWidth="180" pageHeight="200" math="0" shadow="0">
      <root>
        <mxCell id="0" />
        <mxCell id="1" parent="0" />
        <mxCell id="6Xo3o1QixIiLEGfn1mMo-1" value="PWM" style="rounded=0;whiteSpace=wrap;html=1;" parent="1" vertex="1">
          <mxGeometry x="331" y="442" width="104" height="48" as="geometry" />
        </mxCell>
        <mxCell id="6Xo3o1QixIiLEGfn1mMo-2" value="Perioherals&lt;div&gt;Clock&lt;/div&gt;" style="shape=cylinder3;whiteSpace=wrap;html=1;boundedLbl=1;backgroundOutline=1;size=15;" parent="1" vertex="1">
          <mxGeometry x="339" y="619" width="88" height="64" as="geometry" />
        </mxCell>
        <mxCell id="6Xo3o1QixIiLEGfn1mMo-3" value="" style="endArrow=classic;html=1;rounded=0;exitX=0.5;exitY=0;exitDx=0;exitDy=0;exitPerimeter=0;entryX=0.5;entryY=1;entryDx=0;entryDy=0;" parent="1" source="6Xo3o1QixIiLEGfn1mMo-2" target="6Xo3o1QixIiLEGfn1mMo-1" edge="1">
          <mxGeometry width="50" height="50" relative="1" as="geometry">
            <mxPoint x="380" y="536" as="sourcePoint" />
            <mxPoint x="430" y="486" as="targetPoint" />
          </mxGeometry>
        </mxCell>
        <mxCell id="6Xo3o1QixIiLEGfn1mMo-4" value="PWM Channel0" style="rounded=0;whiteSpace=wrap;html=1;" parent="1" vertex="1">
          <mxGeometry x="513" y="354" width="132" height="32" as="geometry" />
        </mxCell>
        <mxCell id="6Xo3o1QixIiLEGfn1mMo-5" value="PWM Channel1" style="rounded=0;whiteSpace=wrap;html=1;" parent="1" vertex="1">
          <mxGeometry x="513" y="402" width="132" height="32" as="geometry" />
        </mxCell>
        <mxCell id="6Xo3o1QixIiLEGfn1mMo-6" value="PWM Channel2" style="rounded=0;whiteSpace=wrap;html=1;" parent="1" vertex="1">
          <mxGeometry x="513" y="450" width="132" height="32" as="geometry" />
        </mxCell>
        <mxCell id="6Xo3o1QixIiLEGfn1mMo-7" value="PWM Channel3" style="rounded=0;whiteSpace=wrap;html=1;" parent="1" vertex="1">
          <mxGeometry x="513" y="498" width="132" height="32" as="geometry" />
        </mxCell>
        <mxCell id="6Xo3o1QixIiLEGfn1mMo-8" value="PWM Channel4" style="rounded=0;whiteSpace=wrap;html=1;" parent="1" vertex="1">
          <mxGeometry x="513" y="546" width="132" height="32" as="geometry" />
        </mxCell>
        <mxCell id="6Xo3o1QixIiLEGfn1mMo-9" value="" style="endArrow=classic;html=1;rounded=0;exitX=1;exitY=0.5;exitDx=0;exitDy=0;entryX=0;entryY=0.5;entryDx=0;entryDy=0;" parent="1" source="6Xo3o1QixIiLEGfn1mMo-1" target="6Xo3o1QixIiLEGfn1mMo-4" edge="1">
          <mxGeometry width="50" height="50" relative="1" as="geometry">
            <mxPoint x="705" y="517" as="sourcePoint" />
            <mxPoint x="755" y="467" as="targetPoint" />
            <Array as="points" />
          </mxGeometry>
        </mxCell>
        <mxCell id="6Xo3o1QixIiLEGfn1mMo-10" value="" style="endArrow=classic;html=1;rounded=0;exitX=1;exitY=0.5;exitDx=0;exitDy=0;entryX=0;entryY=0.5;entryDx=0;entryDy=0;" parent="1" source="6Xo3o1QixIiLEGfn1mMo-1" target="6Xo3o1QixIiLEGfn1mMo-5" edge="1">
          <mxGeometry width="50" height="50" relative="1" as="geometry">
            <mxPoint x="444" y="566" as="sourcePoint" />
            <mxPoint x="494" y="516" as="targetPoint" />
          </mxGeometry>
        </mxCell>
        <mxCell id="6Xo3o1QixIiLEGfn1mMo-11" value="" style="endArrow=classic;html=1;rounded=0;exitX=1;exitY=0.5;exitDx=0;exitDy=0;entryX=0;entryY=0.5;entryDx=0;entryDy=0;" parent="1" source="6Xo3o1QixIiLEGfn1mMo-1" target="6Xo3o1QixIiLEGfn1mMo-6" edge="1">
          <mxGeometry width="50" height="50" relative="1" as="geometry">
            <mxPoint x="456" y="580" as="sourcePoint" />
            <mxPoint x="506" y="530" as="targetPoint" />
          </mxGeometry>
        </mxCell>
        <mxCell id="6Xo3o1QixIiLEGfn1mMo-12" value="" style="endArrow=classic;html=1;rounded=0;exitX=1;exitY=0.5;exitDx=0;exitDy=0;entryX=0;entryY=0.5;entryDx=0;entryDy=0;" parent="1" source="6Xo3o1QixIiLEGfn1mMo-1" target="6Xo3o1QixIiLEGfn1mMo-7" edge="1">
          <mxGeometry width="50" height="50" relative="1" as="geometry">
            <mxPoint x="430" y="579" as="sourcePoint" />
            <mxPoint x="480" y="529" as="targetPoint" />
          </mxGeometry>
        </mxCell>
        <mxCell id="6Xo3o1QixIiLEGfn1mMo-13" value="" style="endArrow=classic;html=1;rounded=0;exitX=1;exitY=0.5;exitDx=0;exitDy=0;entryX=0;entryY=0.5;entryDx=0;entryDy=0;" parent="1" source="6Xo3o1QixIiLEGfn1mMo-1" target="6Xo3o1QixIiLEGfn1mMo-8" edge="1">
          <mxGeometry width="50" height="50" relative="1" as="geometry">
            <mxPoint x="443" y="603" as="sourcePoint" />
            <mxPoint x="493" y="553" as="targetPoint" />
          </mxGeometry>
        </mxCell>
        <mxCell id="6Xo3o1QixIiLEGfn1mMo-14" value="" style="endArrow=classic;html=1;rounded=0;exitX=1;exitY=0.5;exitDx=0;exitDy=0;" parent="1" source="6Xo3o1QixIiLEGfn1mMo-5" edge="1">
          <mxGeometry width="50" height="50" relative="1" as="geometry">
            <mxPoint x="788" y="490" as="sourcePoint" />
            <mxPoint x="918" y="418" as="targetPoint" />
          </mxGeometry>
        </mxCell>
        <mxCell id="6Xo3o1QixIiLEGfn1mMo-15" value="" style="endArrow=classic;html=1;rounded=0;exitX=1;exitY=0.5;exitDx=0;exitDy=0;" parent="1" source="6Xo3o1QixIiLEGfn1mMo-6" edge="1">
          <mxGeometry width="50" height="50" relative="1" as="geometry">
            <mxPoint x="735" y="502" as="sourcePoint" />
            <mxPoint x="916" y="466" as="targetPoint" />
          </mxGeometry>
        </mxCell>
        <mxCell id="6Xo3o1QixIiLEGfn1mMo-16" value="" style="endArrow=classic;html=1;rounded=0;exitX=1;exitY=0.5;exitDx=0;exitDy=0;" parent="1" source="6Xo3o1QixIiLEGfn1mMo-7" edge="1">
          <mxGeometry width="50" height="50" relative="1" as="geometry">
            <mxPoint x="802" y="591" as="sourcePoint" />
            <mxPoint x="917" y="514" as="targetPoint" />
          </mxGeometry>
        </mxCell>
        <mxCell id="6Xo3o1QixIiLEGfn1mMo-17" value="GPIO PB0" style="text;html=1;align=center;verticalAlign=middle;whiteSpace=wrap;rounded=0;" parent="1" vertex="1">
          <mxGeometry x="710" y="339" width="60" height="30" as="geometry" />
        </mxCell>
        <mxCell id="6Xo3o1QixIiLEGfn1mMo-18" value="" style="endArrow=classic;startArrow=classic;html=1;rounded=0;exitX=1;exitY=0.5;exitDx=0;exitDy=0;" parent="1" source="6Xo3o1QixIiLEGfn1mMo-4" edge="1">
          <mxGeometry width="50" height="50" relative="1" as="geometry">
            <mxPoint x="784" y="382" as="sourcePoint" />
            <mxPoint x="917" y="370" as="targetPoint" />
          </mxGeometry>
        </mxCell>
        <mxCell id="6Xo3o1QixIiLEGfn1mMo-19" value="" style="endArrow=classic;startArrow=classic;html=1;rounded=0;exitX=1;exitY=0.5;exitDx=0;exitDy=0;" parent="1" source="6Xo3o1QixIiLEGfn1mMo-8" edge="1">
          <mxGeometry width="50" height="50" relative="1" as="geometry">
            <mxPoint x="719" y="596" as="sourcePoint" />
            <mxPoint x="915" y="562" as="targetPoint" />
          </mxGeometry>
        </mxCell>
        <mxCell id="6Xo3o1QixIiLEGfn1mMo-20" value="GPIO PB1" style="text;html=1;align=center;verticalAlign=middle;whiteSpace=wrap;rounded=0;" parent="1" vertex="1">
          <mxGeometry x="710" y="386" width="60" height="30" as="geometry" />
        </mxCell>
        <mxCell id="6Xo3o1QixIiLEGfn1mMo-21" value="GPIO PB2" style="text;html=1;align=center;verticalAlign=middle;whiteSpace=wrap;rounded=0;" parent="1" vertex="1">
          <mxGeometry x="710" y="430" width="60" height="30" as="geometry" />
        </mxCell>
        <mxCell id="6Xo3o1QixIiLEGfn1mMo-22" value="GPIO PB3" style="text;html=1;align=center;verticalAlign=middle;whiteSpace=wrap;rounded=0;" parent="1" vertex="1">
          <mxGeometry x="710" y="482" width="60" height="30" as="geometry" />
        </mxCell>
        <mxCell id="6Xo3o1QixIiLEGfn1mMo-23" value="GPIO PA7" style="text;html=1;align=center;verticalAlign=middle;whiteSpace=wrap;rounded=0;" parent="1" vertex="1">
          <mxGeometry x="710" y="530" width="60" height="30" as="geometry" />
        </mxCell>
        <mxCell id="6Xo3o1QixIiLEGfn1mMo-24" value="" style="endArrow=none;dashed=1;html=1;rounded=0;" parent="1" edge="1">
          <mxGeometry width="50" height="50" relative="1" as="geometry">
            <mxPoint x="294" y="602" as="sourcePoint" />
            <mxPoint x="296" y="606" as="targetPoint" />
            <Array as="points">
              <mxPoint x="294" y="321" />
              <mxPoint x="698" y="321" />
              <mxPoint x="702" y="606" />
            </Array>
          </mxGeometry>
        </mxCell>
        <mxCell id="6Xo3o1QixIiLEGfn1mMo-25" value="PWM" style="text;html=1;align=center;verticalAlign=middle;whiteSpace=wrap;rounded=0;" parent="1" vertex="1">
          <mxGeometry x="302" y="288" width="60" height="30" as="geometry" />
        </mxCell>
        <mxCell id="6Xo3o1QixIiLEGfn1mMo-26" value="" style="endArrow=none;dashed=1;html=1;dashPattern=1 3;strokeWidth=2;rounded=0;" parent="1" edge="1">
          <mxGeometry width="50" height="50" relative="1" as="geometry">
            <mxPoint x="830" y="271" as="sourcePoint" />
            <mxPoint x="833" y="264" as="targetPoint" />
            <Array as="points">
              <mxPoint x="830" y="713" />
              <mxPoint x="248" y="713" />
              <mxPoint x="248" y="264" />
            </Array>
          </mxGeometry>
        </mxCell>
        <mxCell id="6Xo3o1QixIiLEGfn1mMo-27" value="CPU" style="text;html=1;align=center;verticalAlign=middle;whiteSpace=wrap;rounded=0;" parent="1" vertex="1">
          <mxGeometry x="754" y="675" width="60" height="30" as="geometry" />
        </mxCell>
        <mxCell id="6Xo3o1QixIiLEGfn1mMo-28" value="" style="endArrow=none;html=1;rounded=0;" parent="1" edge="1">
          <mxGeometry width="50" height="50" relative="1" as="geometry">
            <mxPoint x="974" y="493" as="sourcePoint" />
            <mxPoint x="1412" y="493" as="targetPoint" />
            <Array as="points">
              <mxPoint x="1040" y="493" />
              <mxPoint x="1040" y="421" />
              <mxPoint x="1133" y="421" />
              <mxPoint x="1133" y="493" />
              <mxPoint x="1235" y="493" />
              <mxPoint x="1235" y="421" />
              <mxPoint x="1340" y="421" />
              <mxPoint x="1340" y="493" />
            </Array>
          </mxGeometry>
        </mxCell>
      </root>
    </mxGraphModel>
  </diagram>
</mxfile>
